<svg xmlns="http://www.w3.org/2000/svg" xmlns:xlink="http://www.w3.org/1999/xlink" width="440" zoomAndPan="magnify" viewBox="0 0 330 131.249995" height="175" preserveAspectRatio="xMidYMid meet" version="1.2"><defs><clipPath id="ab4a39ce4e"><path d="M 237.675781 51.363281 L 302.554688 51.363281 L 302.554688 116 L 237.675781 116 Z M 237.675781 51.363281 "/></clipPath><clipPath id="53c7fd2f4c"><path d="M 84.039062 5 L 115 5 L 115 48 L 84.039062 48 Z M 84.039062 5 "/></clipPath><clipPath id="13e48ad179"><path d="M 275.617188 40.945312 L 316.15625 40.945312 L 316.15625 79.238281 L 275.617188 79.238281 Z M 275.617188 40.945312 "/></clipPath><clipPath id="2a40f8f9a6"><path d="M 281.585938 40.945312 L 310.046875 40.945312 C 311.628906 40.945312 313.144531 41.574219 314.265625 42.691406 C 315.382812 43.808594 316.011719 45.328125 316.011719 46.910156 L 316.011719 73.273438 C 316.011719 74.855469 315.382812 76.371094 314.265625 77.492188 C 313.144531 78.609375 311.628906 79.238281 310.046875 79.238281 L 281.585938 79.238281 C 280.003906 79.238281 278.484375 78.609375 277.367188 77.492188 C 276.246094 76.371094 275.617188 74.855469 275.617188 73.273438 L 275.617188 46.910156 C 275.617188 45.328125 276.246094 43.808594 277.367188 42.691406 C 278.484375 41.574219 280.003906 40.945312 281.585938 40.945312 Z M 281.585938 40.945312 "/></clipPath><clipPath id="c520d20950"><path d="M 281.894531 47.410156 L 309.484375 47.410156 L 309.484375 72.765625 L 281.894531 72.765625 Z M 281.894531 47.410156 "/></clipPath></defs><g id="a938204de4"><g style="fill:#e7e3e3;fill-opacity:1;"><g transform="translate(11.724529, 115.780169)"><path style="stroke:none" d="M 62.78125 -96.453125 L 62.78125 -77.15625 L 29 -77.15625 L 29 -57.984375 L 60.203125 -57.984375 L 60.203125 -38.703125 L 29 -38.703125 L 29 0 L 7.015625 0 L 7.015625 -96.453125 Z M 62.78125 -96.453125 "/></g></g><g style="fill:#e7e3e3;fill-opacity:1;"><g transform="translate(68.072626, 115.780169)"><path style="stroke:none" d="M 11.09375 -7.421875 C 5.488281 -13.535156 2.6875 -21.035156 2.6875 -29.921875 C 2.6875 -38.804688 5.488281 -46.328125 11.09375 -52.484375 C 16.707031 -58.640625 23.84375 -61.71875 32.5 -61.71875 C 40.445312 -61.71875 46.992188 -59.226562 52.140625 -54.25 L 52.140625 -59.96875 L 72.828125 -59.96875 L 72.828125 0 L 52.375 0 L 52.375 -6.78125 L 52.140625 -6.78125 C 46.992188 -1.09375 40.445312 1.75 32.5 1.75 C 23.84375 1.75 16.707031 -1.304688 11.09375 -7.421875 Z M 28.703125 -40.09375 C 26.015625 -37.445312 24.671875 -34.054688 24.671875 -29.921875 C 24.671875 -25.796875 25.957031 -22.425781 28.53125 -19.8125 C 31.101562 -17.207031 34.492188 -15.90625 38.703125 -15.90625 C 42.753906 -15.90625 46.082031 -17.226562 48.6875 -19.875 C 51.300781 -22.519531 52.609375 -25.867188 52.609375 -29.921875 C 52.609375 -34.054688 51.265625 -37.445312 48.578125 -40.09375 C 45.890625 -42.75 42.597656 -44.078125 38.703125 -44.078125 C 34.722656 -44.078125 31.390625 -42.75 28.703125 -40.09375 Z M 28.703125 -40.09375 "/></g></g><g style="fill:#8383b2;fill-opacity:1;"><g transform="translate(137.987392, 115.780169)"><path style="stroke:none" d="M 11.09375 -7.421875 C 5.488281 -13.535156 2.6875 -21.035156 2.6875 -29.921875 C 2.6875 -38.804688 5.488281 -46.328125 11.09375 -52.484375 C 16.707031 -58.640625 23.84375 -61.71875 32.5 -61.71875 C 40.445312 -61.71875 46.992188 -59.226562 52.140625 -54.25 L 52.140625 -59.96875 L 72.828125 -59.96875 L 72.828125 0 L 52.375 0 L 52.375 -6.78125 L 52.140625 -6.78125 C 46.992188 -1.09375 40.445312 1.75 32.5 1.75 C 23.84375 1.75 16.707031 -1.304688 11.09375 -7.421875 Z M 28.703125 -40.09375 C 26.015625 -37.445312 24.671875 -34.054688 24.671875 -29.921875 C 24.671875 -25.796875 25.957031 -22.425781 28.53125 -19.8125 C 31.101562 -17.207031 34.492188 -15.90625 38.703125 -15.90625 C 42.753906 -15.90625 46.082031 -17.226562 48.6875 -19.875 C 51.300781 -22.519531 52.609375 -25.867188 52.609375 -29.921875 C 52.609375 -34.054688 51.265625 -37.445312 48.578125 -40.09375 C 45.890625 -42.75 42.597656 -44.078125 38.703125 -44.078125 C 34.722656 -44.078125 31.390625 -42.75 28.703125 -40.09375 Z M 28.703125 -40.09375 "/></g></g><g style="fill:#e7e3e3;fill-opacity:1;"><g transform="translate(207.900383, 115.780169)"><path style="stroke:none" d="M 7.015625 0 L 7.015625 -100.546875 L 27.703125 -100.546875 L 27.703125 0 Z M 7.015625 0 "/></g></g><g clip-rule="nonzero" clip-path="url(#ab4a39ce4e)"><path style=" stroke:none;fill-rule:nonzero;fill:#5d5d81;fill-opacity:1;" d="M 265.089844 115.679688 C 264.84375 115.570312 264.371094 115.472656 264.042969 115.464844 C 263.152344 115.441406 257.628906 113.699219 256.574219 113.109375 C 256.070312 112.828125 254.851562 112.160156 253.863281 111.621094 C 251.210938 110.171875 247.597656 107.078125 245.269531 104.269531 C 243.28125 101.863281 240.277344 96.757812 239.9375 95.203125 C 239.851562 94.824219 239.488281 93.59375 239.121094 92.46875 C 238.03125 89.109375 237.671875 83.976562 238.195312 79.296875 C 238.773438 74.148438 241.445312 67.707031 244.523438 64.03125 C 245.09375 63.355469 245.757812 62.546875 246.007812 62.238281 C 246.582031 61.515625 248.09375 60.003906 248.816406 59.429688 C 249.125 59.179688 249.933594 58.515625 250.613281 57.949219 C 251.289062 57.386719 252.199219 56.710938 252.628906 56.457031 C 254.9375 55.082031 257.800781 53.617188 258.691406 53.351562 C 264.714844 51.5625 265.796875 51.375 270.144531 51.378906 C 273.40625 51.382812 276.667969 51.722656 278.113281 52.21875 C 278.605469 52.386719 279.769531 52.746094 280.695312 53.019531 C 282.363281 53.507812 284.640625 54.566406 286.9375 55.921875 C 287.589844 56.304688 288.183594 56.621094 288.257812 56.621094 C 288.332031 56.621094 289.011719 57.152344 289.765625 57.804688 C 290.519531 58.453125 291.621094 59.371094 292.210938 59.84375 C 293.644531 60.992188 297.132812 65.335938 298.1875 67.285156 C 298.65625 68.152344 299.292969 69.3125 299.601562 69.867188 C 300.210938 70.957031 301.675781 75.398438 302.0625 77.324219 C 302.492188 79.449219 302.554688 86.902344 302.164062 89.167969 C 300.789062 97.175781 296.695312 104.011719 290.101562 109.308594 C 288.460938 110.628906 287.808594 111.035156 284.433594 112.859375 C 282.8125 113.730469 279.636719 114.8125 276.992188 115.390625 C 275.191406 115.785156 265.835938 116.011719 265.089844 115.679688 Z M 275.484375 112.074219 C 278.433594 110.578125 281.746094 107.113281 283.714844 103.46875 C 284.171875 102.625 284.488281 101.789062 284.421875 101.617188 C 284.257812 101.191406 271.734375 101.144531 271.308594 101.570312 C 271.019531 101.863281 270.902344 112.765625 271.1875 113.050781 C 271.542969 113.402344 273.933594 112.859375 275.484375 112.074219 Z M 268.347656 107.476562 C 268.410156 104.511719 268.371094 101.898438 268.265625 101.664062 C 268.097656 101.296875 267.910156 101.261719 266.71875 101.386719 C 265.972656 101.460938 263.15625 101.527344 260.457031 101.527344 C 255.75 101.527344 255.550781 101.542969 255.550781 101.960938 C 255.550781 102.203125 255.640625 102.453125 255.75 102.523438 C 255.859375 102.589844 256.222656 103.175781 256.5625 103.824219 C 258.941406 108.414062 264.378906 113.050781 267.226562 112.914062 L 268.234375 112.863281 Z M 283.457031 110.445312 C 284.101562 110.042969 285.113281 109.460938 285.710938 109.15625 C 288.203125 107.878906 294.25 102.199219 293.832031 101.527344 C 293.617188 101.183594 287.992188 101.234375 287.714844 101.582031 C 287.59375 101.738281 286.964844 102.890625 286.320312 104.140625 C 285.671875 105.394531 284.34375 107.445312 283.371094 108.699219 C 282.394531 109.949219 281.59375 111.023438 281.59375 111.078125 C 281.59375 111.378906 282.425781 111.097656 283.457031 110.445312 Z M 257.765625 110.09375 C 257.597656 109.863281 256.839844 108.867188 256.085938 107.875 C 255.335938 106.878906 254.285156 105.222656 253.757812 104.191406 C 252.328125 101.390625 252.550781 101.527344 249.453125 101.527344 C 247.214844 101.527344 246.792969 101.582031 246.792969 101.871094 C 246.792969 102.3125 250.769531 106.308594 252.5 107.605469 C 255.382812 109.765625 258.679688 111.324219 257.765625 110.09375 Z M 251.183594 98.589844 C 251.265625 98.457031 251.171875 97.925781 250.980469 97.410156 C 250.410156 95.886719 249.324219 89.910156 249.179688 87.523438 C 249.105469 86.300781 248.929688 85.164062 248.789062 84.996094 C 248.59375 84.757812 247.714844 84.6875 244.914062 84.691406 C 242.921875 84.691406 241.144531 84.789062 240.960938 84.902344 C 239.996094 85.511719 241.535156 92.84375 243.390625 96.464844 C 244.632812 98.894531 244.511719 98.832031 248.015625 98.832031 C 249.929688 98.832031 251.085938 98.742188 251.183594 98.589844 Z M 268.355469 98.246094 C 268.488281 97.898438 268.554688 95.089844 268.519531 91.230469 L 268.460938 84.800781 L 260.375 84.746094 C 255.921875 84.714844 252.152344 84.78125 251.980469 84.890625 C 251.71875 85.058594 251.707031 85.554688 251.917969 87.976562 C 252.320312 92.613281 253.640625 98.113281 254.476562 98.644531 C 254.632812 98.742188 257.773438 98.828125 261.449219 98.828125 L 268.132812 98.832031 Z M 285.941406 98.101562 C 287.183594 96.121094 288.929688 85.308594 288.09375 84.792969 C 287.765625 84.589844 271.652344 84.660156 271.449219 84.867188 C 271.238281 85.082031 270.941406 97.273438 271.125 98.011719 L 271.273438 98.609375 L 285.625 98.609375 Z M 296.113281 98.101562 C 297.019531 97.085938 297.78125 95.429688 298.632812 92.617188 C 299.660156 89.222656 300.253906 84.984375 299.75 84.664062 C 299.246094 84.34375 291.847656 84.414062 291.410156 84.742188 C 291.121094 84.960938 290.988281 85.671875 290.808594 87.910156 C 290.554688 91.0625 289.8125 95.371094 289.316406 96.539062 C 289.144531 96.945312 289.003906 97.574219 289.003906 97.941406 L 289.003906 98.609375 L 292.332031 98.609375 C 295.5 98.609375 295.683594 98.582031 296.113281 98.101562 Z M 248.894531 81.746094 C 249.042969 81.535156 249.191406 80.621094 249.226562 79.714844 C 249.3125 77.375 250.496094 70.945312 251.027344 69.910156 C 251.460938 69.066406 251.136719 68.96875 247.898438 68.96875 C 245.089844 68.96875 244.726562 69.015625 244.332031 69.410156 C 243.6875 70.054688 242.863281 71.777344 242.175781 73.929688 C 241.84375 74.96875 241.433594 76.25 241.261719 76.777344 C 240.789062 78.261719 240.601562 81.453125 240.960938 81.886719 C 241.214844 82.191406 241.804688 82.234375 244.941406 82.1875 C 248.121094 82.140625 248.660156 82.078125 248.894531 81.746094 Z M 268.570312 75.707031 C 268.632812 72.3125 268.59375 69.40625 268.488281 69.25 C 268.339844 69.035156 266.664062 68.972656 261.414062 68.972656 C 257.632812 68.976562 254.429688 69.050781 254.296875 69.140625 C 253.886719 69.425781 253.28125 71.234375 252.730469 73.84375 C 252.152344 76.5625 251.621094 81.152344 251.820312 81.675781 C 251.925781 81.949219 253.183594 81.988281 260.203125 81.941406 L 268.460938 81.882812 Z M 288.054688 81.710938 C 288.617188 81.019531 287.46875 73.121094 286.378906 70.207031 L 285.957031 69.082031 L 271.378906 69.082031 L 271.265625 75.21875 C 271.203125 78.59375 271.234375 81.496094 271.332031 81.671875 C 271.582031 82.117188 287.695312 82.15625 288.054688 81.710938 Z M 299.609375 81.710938 C 299.9375 81.460938 299.945312 81.214844 299.691406 79.300781 C 299.207031 75.679688 297.027344 69.746094 295.871094 68.90625 C 295.492188 68.632812 289.265625 68.84375 288.96875 69.140625 C 288.78125 69.328125 288.8125 69.597656 289.097656 70.195312 C 289.304688 70.636719 289.621094 71.828125 289.800781 72.847656 C 289.976562 73.863281 290.226562 75.050781 290.355469 75.480469 C 290.484375 75.914062 290.652344 77.414062 290.730469 78.8125 C 290.824219 80.546875 290.972656 81.460938 291.1875 81.675781 C 291.621094 82.105469 299.054688 82.140625 299.609375 81.710938 Z M 252.003906 66.21875 C 252.199219 66.066406 252.898438 64.878906 253.554688 63.582031 C 254.214844 62.285156 255.496094 60.273438 256.398438 59.113281 C 257.335938 57.910156 257.957031 56.921875 257.847656 56.808594 C 257.589844 56.554688 253.878906 58.691406 252.097656 60.121094 C 249.5 62.203125 246.242188 65.6875 246.429688 66.179688 C 246.597656 66.609375 251.460938 66.648438 252.003906 66.21875 Z M 268.496094 66.023438 C 268.734375 65.824219 268.796875 64.574219 268.796875 60.078125 L 268.796875 54.386719 L 268.234375 54.246094 C 267.496094 54.058594 266.871094 54.230469 264.863281 55.171875 C 262.789062 56.140625 260.257812 58.3125 258.496094 60.628906 C 256.855469 62.785156 255.117188 66.007812 255.476562 66.230469 C 255.910156 66.5 268.15625 66.304688 268.496094 66.023438 Z M 284.605469 66.082031 C 284.789062 65.785156 282.878906 62.378906 281.503906 60.550781 C 279.769531 58.246094 277.542969 56.332031 275.371094 55.277344 C 273.28125 54.265625 272.597656 54.054688 271.992188 54.246094 C 271.589844 54.375 271.550781 54.738281 271.410156 60.019531 C 271.296875 64.128906 271.324219 65.742188 271.511719 65.964844 C 271.71875 66.21875 272.992188 66.277344 278.128906 66.277344 C 281.625 66.277344 284.539062 66.1875 284.605469 66.082031 Z M 294.039062 66.082031 C 294.210938 65.800781 291.582031 62.796875 289.882812 61.328125 C 287.644531 59.398438 286.773438 58.773438 285.007812 57.832031 L 282.648438 56.578125 C 282.253906 56.367188 281.859375 56.191406 281.769531 56.183594 C 281.507812 56.167969 282.390625 57.515625 283.777344 59.253906 C 284.492188 60.148438 285.679688 62.039062 286.421875 63.457031 C 287.164062 64.878906 287.921875 66.082031 288.105469 66.132812 C 288.773438 66.316406 293.917969 66.273438 294.039062 66.082031 Z M 294.039062 66.082031 "/></g><g clip-rule="nonzero" clip-path="url(#53c7fd2f4c)"><path style=" stroke:none;fill-rule:nonzero;fill:#5d5d81;fill-opacity:1;" d="M 100.96875 27.914062 C 103.449219 26.242188 106.386719 24.914062 109.351562 25.316406 C 112.316406 25.722656 115.097656 28.433594 114.65625 31.390625 C 114.417969 33 113.3125 34.371094 111.980469 35.296875 C 110.644531 36.21875 109.089844 36.765625 107.558594 37.296875 C 104.878906 38.226562 102.199219 39.15625 99.523438 40.085938 C 97.0625 40.941406 94.082031 42.582031 91.5 42.875 C 88.511719 43.210938 90.652344 39.898438 91.394531 38.523438 C 92.472656 36.515625 93.785156 34.632812 95.289062 32.921875 C 96.917969 31.066406 98.835938 29.191406 100.96875 27.914062 Z M 101.8125 44.015625 C 100.46875 44.371094 96.878906 45.222656 96.167969 46.554688 C 95.324219 48.132812 99.894531 47.425781 100.917969 47.414062 C 103.300781 47.390625 105.679688 47.367188 108.0625 47.339844 C 108.664062 47.335938 109.28125 47.328125 109.855469 47.128906 C 110.425781 46.933594 110.957031 46.511719 111.121094 45.933594 C 111.339844 45.171875 110.863281 44.34375 110.191406 43.921875 C 109.519531 43.5 108.699219 43.402344 107.90625 43.363281 C 105.847656 43.289062 103.808594 43.484375 101.8125 44.015625 Z M 84.378906 28.386719 C 84.289062 30.890625 84.039062 34.226562 84.421875 37.054688 C 84.550781 38.015625 85.863281 38.199219 86.242188 37.304688 C 87.238281 34.964844 88.753906 31.570312 91.476562 27.785156 C 94.625 23.410156 98.886719 19.632812 100.445312 14.472656 C 101.183594 12.019531 101.246094 9.101562 99.574219 7.160156 C 98.082031 5.429688 95.476562 4.917969 93.292969 5.585938 C 91.105469 6.257812 89.339844 7.949219 88.175781 9.914062 C 86.914062 12.035156 86.285156 14.46875 85.769531 16.875 C 84.953125 20.660156 84.511719 24.515625 84.378906 28.386719 Z M 84.378906 28.386719 "/></g><g clip-rule="nonzero" clip-path="url(#13e48ad179)"><g clip-rule="nonzero" clip-path="url(#2a40f8f9a6)"><path style=" stroke:none;fill-rule:nonzero;fill:#5d5d81;fill-opacity:1;" d="M 275.617188 40.945312 L 316.007812 40.945312 L 316.007812 79.238281 L 275.617188 79.238281 Z M 275.617188 40.945312 "/></g></g><g clip-rule="nonzero" clip-path="url(#c520d20950)"><path style=" stroke:none;fill-rule:nonzero;fill:#ffffff;fill-opacity:1;" d="M 303.675781 57.996094 L 309.484375 72.519531 L 306.640625 72.519531 L 305.054688 68.558594 L 299.65625 68.558594 L 298.074219 72.519531 L 295.230469 72.519531 L 301.035156 57.996094 Z M 292.453125 47.433594 L 292.453125 50.074219 L 300.375 50.074219 L 300.375 52.714844 L 297.777344 52.714844 C 296.75 55.8125 295.15625 58.585938 293 61.03125 C 293.953125 61.886719 294.980469 62.636719 296.082031 63.285156 L 295.089844 65.765625 C 293.667969 64.960938 292.351562 64.007812 291.132812 62.914062 C 288.75 65.074219 286.019531 66.632812 282.949219 67.597656 L 282.242188 65.050781 C 284.871094 64.210938 287.214844 62.875 289.273438 61.035156 C 287.757812 59.320312 286.515625 57.425781 285.546875 55.355469 L 288.503906 55.355469 C 289.242188 56.71875 290.117188 57.984375 291.132812 59.152344 C 292.796875 57.234375 294.078125 55.089844 294.976562 52.714844 L 281.894531 52.714844 L 281.894531 50.074219 L 289.816406 50.074219 L 289.816406 47.433594 Z M 302.355469 61.804688 L 300.710938 65.917969 L 304 65.917969 Z M 302.355469 61.804688 "/></g></g></svg>