<svg xmlns="http://www.w3.org/2000/svg" xmlns:xlink="http://www.w3.org/1999/xlink" width="200" zoomAndPan="magnify" viewBox="0 0 150 149.999998" height="200" preserveAspectRatio="xMidYMid meet" version="1.2"><defs><clipPath id="694a416ea7"><path d="M 3.453125 25.175781 L 122.703125 25.175781 L 122.703125 143.675781 L 3.453125 143.675781 Z M 3.453125 25.175781 "/></clipPath><clipPath id="8a13a934af"><path d="M 72.761719 6.140625 L 146.8125 6.140625 L 146.8125 76.09375 L 72.761719 76.09375 Z M 72.761719 6.140625 "/></clipPath><clipPath id="eb4a696df3"><path d="M 78.761719 6.140625 L 140.546875 6.140625 C 143.859375 6.140625 146.546875 8.828125 146.546875 12.140625 L 146.546875 70.09375 C 146.546875 73.40625 143.859375 76.09375 140.546875 76.09375 L 78.761719 76.09375 C 75.449219 76.09375 72.761719 73.40625 72.761719 70.09375 L 72.761719 12.140625 C 72.761719 8.828125 75.449219 6.140625 78.761719 6.140625 Z M 78.761719 6.140625 "/></clipPath><clipPath id="e76e5c36cd"><path d="M 84.222656 17.953125 L 134.625 17.953125 L 134.625 64 L 84.222656 64 Z M 84.222656 17.953125 "/></clipPath></defs><g id="817b921238"><g clip-rule="nonzero" clip-path="url(#694a416ea7)"><path style=" stroke:none;fill-rule:nonzero;fill:#5d5d81;fill-opacity:1;" d="M 53.691406 143.027344 C 53.238281 142.824219 52.375 142.648438 51.769531 142.628906 C 50.140625 142.589844 40.019531 139.398438 38.085938 138.320312 C 37.164062 137.804688 34.929688 136.578125 33.121094 135.589844 C 28.257812 132.933594 21.632812 127.265625 17.371094 122.117188 C 13.730469 117.710938 8.222656 108.355469 7.597656 105.503906 C 7.445312 104.8125 6.773438 102.558594 6.105469 100.492188 C 4.109375 94.339844 3.449219 84.933594 4.410156 76.363281 C 5.46875 66.921875 10.359375 55.121094 16.003906 48.386719 C 17.046875 47.144531 18.269531 45.667969 18.722656 45.101562 C 19.777344 43.777344 22.546875 41.007812 23.871094 39.949219 C 24.4375 39.496094 25.917969 38.28125 27.160156 37.242188 C 28.402344 36.207031 30.066406 34.976562 30.859375 34.503906 C 35.089844 31.988281 40.335938 29.300781 41.964844 28.816406 C 53.003906 25.539062 54.988281 25.195312 62.949219 25.203125 C 68.929688 25.207031 74.902344 25.835938 77.554688 26.738281 C 78.460938 27.046875 80.589844 27.707031 82.285156 28.207031 C 85.34375 29.101562 89.511719 31.039062 93.722656 33.523438 C 94.917969 34.230469 96.011719 34.808594 96.144531 34.808594 C 96.28125 34.808594 97.519531 35.78125 98.902344 36.972656 C 100.285156 38.167969 102.300781 39.847656 103.382812 40.714844 C 106.015625 42.820312 112.40625 50.773438 114.339844 54.351562 C 115.195312 55.933594 116.359375 58.0625 116.929688 59.082031 C 118.046875 61.078125 120.734375 69.210938 121.441406 72.746094 C 122.222656 76.640625 122.339844 90.296875 121.625 94.445312 C 119.105469 109.117188 111.601562 121.648438 99.523438 131.355469 C 96.515625 133.773438 95.324219 134.519531 89.132812 137.855469 C 86.167969 139.453125 80.347656 141.4375 75.496094 142.496094 C 72.199219 143.21875 55.054688 143.636719 53.691406 143.027344 Z M 72.734375 136.421875 C 78.140625 133.675781 84.207031 127.332031 87.816406 120.652344 C 88.652344 119.105469 89.238281 117.578125 89.117188 117.257812 C 88.816406 116.476562 65.867188 116.394531 65.089844 117.175781 C 64.554688 117.707031 64.34375 137.6875 64.863281 138.207031 C 65.511719 138.855469 69.894531 137.863281 72.734375 136.421875 Z M 59.65625 127.996094 C 59.769531 122.566406 59.707031 117.773438 59.511719 117.347656 C 59.203125 116.667969 58.855469 116.605469 56.675781 116.832031 C 55.308594 116.976562 50.144531 117.09375 45.199219 117.09375 C 36.570312 117.09375 36.207031 117.125 36.207031 117.890625 C 36.207031 118.332031 36.371094 118.792969 36.574219 118.917969 C 36.773438 119.042969 37.445312 120.117188 38.0625 121.308594 C 42.421875 129.714844 52.386719 138.207031 57.601562 137.957031 L 59.453125 137.871094 L 59.660156 127.996094 Z M 87.347656 133.4375 C 88.523438 132.695312 90.382812 131.632812 91.476562 131.070312 C 96.039062 128.734375 107.121094 118.328125 106.359375 117.097656 C 105.964844 116.460938 95.652344 116.554688 95.148438 117.195312 C 94.925781 117.480469 93.777344 119.589844 92.589844 121.886719 C 91.40625 124.179688 88.972656 127.9375 87.183594 130.234375 C 85.398438 132.527344 83.933594 134.492188 83.933594 134.597656 C 83.933594 135.144531 85.453125 134.628906 87.347656 133.4375 Z M 40.269531 132.789062 C 39.957031 132.371094 38.574219 130.542969 37.195312 128.722656 C 35.8125 126.902344 33.894531 123.867188 32.925781 121.972656 C 30.304688 116.84375 30.710938 117.09375 25.035156 117.09375 C 20.9375 117.09375 20.160156 117.191406 20.160156 117.722656 C 20.160156 118.53125 27.449219 125.855469 30.617188 128.230469 C 35.90625 132.191406 41.945312 135.046875 40.269531 132.789062 Z M 28.203125 111.710938 C 28.355469 111.46875 28.191406 110.496094 27.835938 109.554688 C 26.792969 106.757812 24.796875 95.808594 24.535156 91.429688 C 24.402344 89.195312 24.082031 87.113281 23.820312 86.800781 C 23.457031 86.363281 21.851562 86.238281 16.71875 86.242188 C 13.066406 86.246094 9.808594 86.421875 9.476562 86.628906 C 7.707031 87.75 10.527344 101.179688 13.925781 107.816406 C 16.207031 112.273438 15.980469 112.15625 22.402344 112.15625 C 25.90625 112.15625 28.03125 111.992188 28.203125 111.714844 Z M 59.675781 111.085938 C 59.917969 110.441406 60.039062 105.296875 59.972656 98.226562 L 59.863281 86.441406 L 45.054688 86.34375 C 36.890625 86.289062 29.984375 86.40625 29.667969 86.609375 C 29.183594 86.917969 29.167969 87.824219 29.550781 92.261719 C 30.289062 100.757812 32.707031 110.835938 34.242188 111.808594 C 34.53125 111.992188 40.28125 112.144531 47.019531 112.148438 L 59.269531 112.15625 Z M 91.898438 110.820312 C 94.171875 107.191406 97.375 87.375 95.84375 86.429688 C 95.242188 86.054688 65.714844 86.1875 65.34375 86.566406 C 64.957031 86.960938 64.410156 109.296875 64.75 110.65625 L 65.023438 111.746094 L 91.320312 111.746094 Z M 110.535156 110.820312 C 112.203125 108.953125 113.59375 105.921875 115.152344 100.765625 C 117.035156 94.546875 118.128906 86.777344 117.203125 86.191406 C 116.277344 85.605469 102.722656 85.738281 101.921875 86.339844 C 101.390625 86.738281 101.144531 88.039062 100.816406 92.144531 C 100.355469 97.921875 98.988281 105.816406 98.082031 107.953125 C 97.769531 108.695312 97.511719 109.851562 97.511719 110.523438 L 97.511719 111.746094 L 103.609375 111.746094 C 109.417969 111.746094 109.75 111.699219 110.535156 110.820312 Z M 24.011719 80.847656 C 24.28125 80.460938 24.554688 78.785156 24.617188 77.121094 C 24.78125 72.835938 26.949219 61.058594 27.921875 59.15625 C 28.714844 57.613281 28.125 57.4375 22.183594 57.4375 C 17.039062 57.4375 16.375 57.519531 15.648438 58.246094 C 14.46875 59.425781 12.964844 62.582031 11.699219 66.523438 C 11.089844 68.429688 10.339844 70.777344 10.03125 71.742188 C 9.160156 74.460938 8.816406 80.3125 9.476562 81.105469 C 9.9375 81.664062 11.019531 81.746094 16.765625 81.65625 C 22.597656 81.566406 23.585938 81.457031 24.011719 80.847656 Z M 60.070312 69.78125 C 60.183594 63.558594 60.113281 58.234375 59.917969 57.949219 C 59.640625 57.558594 56.578125 57.4375 46.957031 57.441406 C 40.027344 57.445312 34.15625 57.585938 33.914062 57.75 C 33.15625 58.273438 32.050781 61.582031 31.039062 66.363281 C 29.980469 71.347656 29.007812 79.761719 29.375 80.71875 C 29.566406 81.222656 31.875 81.292969 44.734375 81.203125 L 59.863281 81.09375 Z M 95.769531 80.785156 C 96.804688 79.515625 94.695312 65.042969 92.699219 59.699219 L 91.929688 57.644531 L 65.210938 57.644531 L 65.007812 68.886719 C 64.894531 75.066406 64.949219 80.390625 65.128906 80.714844 C 65.585938 81.527344 95.113281 81.59375 95.769531 80.785156 Z M 116.945312 80.785156 C 117.546875 80.324219 117.5625 79.871094 117.09375 76.363281 C 116.210938 69.730469 112.214844 58.859375 110.09375 57.320312 C 109.402344 56.816406 97.992188 57.203125 97.449219 57.746094 C 97.101562 58.09375 97.160156 58.585938 97.679688 59.679688 C 98.0625 60.488281 98.640625 62.675781 98.96875 64.539062 C 99.296875 66.402344 99.753906 68.578125 99.988281 69.367188 C 100.222656 70.160156 100.527344 72.90625 100.671875 75.472656 C 100.847656 78.652344 101.117188 80.320312 101.511719 80.71875 C 102.300781 81.507812 115.929688 81.566406 116.945312 80.785156 Z M 29.707031 52.398438 C 30.066406 52.113281 31.347656 49.9375 32.554688 47.5625 C 33.761719 45.1875 36.105469 41.503906 37.765625 39.375 C 39.484375 37.171875 40.621094 35.355469 40.417969 35.152344 C 39.949219 34.683594 33.144531 38.601562 29.882812 41.21875 C 25.125 45.039062 19.152344 51.421875 19.496094 52.320312 C 19.800781 53.109375 28.714844 53.179688 29.707031 52.398438 Z M 59.929688 52.035156 C 60.363281 51.671875 60.480469 49.382812 60.480469 41.144531 L 60.480469 30.710938 L 59.453125 30.453125 C 58.101562 30.113281 56.957031 30.425781 53.269531 32.152344 C 49.472656 33.929688 44.835938 37.90625 41.609375 42.148438 C 38.601562 46.101562 35.414062 52.011719 36.070312 52.417969 C 36.871094 52.910156 59.304688 52.550781 59.929688 52.035156 Z M 89.453125 52.144531 C 89.789062 51.597656 86.289062 45.359375 83.765625 42.007812 C 80.589844 37.789062 76.503906 34.277344 72.53125 32.347656 C 68.699219 30.488281 67.445312 30.105469 66.335938 30.457031 C 65.597656 30.691406 65.53125 31.359375 65.265625 41.035156 C 65.0625 48.5625 65.113281 51.519531 65.457031 51.933594 C 65.839844 52.390625 68.171875 52.5 77.582031 52.5 C 83.988281 52.5 89.332031 52.339844 89.453125 52.144531 Z M 106.734375 52.140625 C 107.050781 51.628906 102.234375 46.121094 99.121094 43.433594 C 95.023438 39.894531 93.425781 38.75 90.183594 37.023438 L 85.863281 34.726562 C 85.140625 34.339844 84.417969 34.015625 84.253906 34.003906 C 83.773438 33.972656 85.394531 36.449219 87.9375 39.632812 C 89.242188 41.269531 91.421875 44.734375 92.777344 47.335938 C 94.136719 49.9375 95.523438 52.140625 95.863281 52.234375 C 97.085938 52.570312 106.519531 52.492188 106.734375 52.140625 Z M 106.734375 52.140625 "/></g><g clip-rule="nonzero" clip-path="url(#8a13a934af)"><g clip-rule="nonzero" clip-path="url(#eb4a696df3)"><path style=" stroke:none;fill-rule:nonzero;fill:#5d5d81;fill-opacity:1;" d="M 72.761719 6.140625 L 146.539062 6.140625 L 146.539062 76.09375 L 72.761719 76.09375 Z M 72.761719 6.140625 "/></g></g><g clip-rule="nonzero" clip-path="url(#e76e5c36cd)"><path style=" stroke:none;fill-rule:nonzero;fill:#ffffff;fill-opacity:1;" d="M 124.015625 37.289062 L 134.625 63.816406 L 129.429688 63.816406 L 126.53125 56.582031 L 116.667969 56.582031 L 113.777344 63.816406 L 108.582031 63.816406 L 119.191406 37.289062 Z M 103.515625 17.996094 L 103.515625 22.820312 L 117.984375 22.820312 L 117.984375 27.644531 L 113.238281 27.644531 C 111.359375 33.300781 108.449219 38.363281 104.511719 42.835938 C 106.253906 44.394531 108.132812 45.765625 110.144531 46.953125 L 108.332031 51.484375 C 105.734375 50.007812 103.324219 48.273438 101.105469 46.273438 C 96.746094 50.21875 91.761719 53.070312 86.152344 54.828125 L 84.859375 50.175781 C 89.664062 48.644531 93.945312 46.199219 97.703125 42.839844 C 94.9375 39.707031 92.667969 36.25 90.898438 32.464844 L 96.296875 32.464844 C 97.648438 34.953125 99.25 37.265625 101.105469 39.402344 C 104.144531 35.902344 106.484375 31.980469 108.121094 27.644531 L 84.222656 27.644531 L 84.222656 22.820312 L 98.691406 22.820312 L 98.691406 17.996094 Z M 121.601562 44.246094 L 118.59375 51.757812 L 124.605469 51.757812 Z M 121.601562 44.246094 "/></g></g></svg>